<?xml version="1.0" encoding="UTF-8"?>
<svg width="70.466" height="108" version="1.1" viewBox="0 0 70.466 108" xmlns="http://www.w3.org/2000/svg" xmlns:cc="http://creativecommons.org/ns#" xmlns:dc="http://purl.org/dc/elements/1.1/" xmlns:rdf="http://www.w3.org/1999/02/22-rdf-syntax-ns#" fill="white">
 <g transform="translate(-18.767 -.00029366)">
  <path id="path" d="m40.794 107.89c-0.642-0.143-1.265-0.796-1.412-1.481-0.155-0.726-0.156-17.693-1e-3 -18.419 0.14-0.651 0.752-1.33 1.348-1.493 0.584-0.161 21.209-0.156 21.847 5e-3 0.616 0.155 1.165 0.704 1.32 1.32 0.161 0.637 0.165 18.146 5e-3 18.729-0.163 0.596-0.842 1.208-1.493 1.348-0.669 0.143-20.969 0.135-21.614-9e-3zm-0.053-29.172c-0.542-0.144-1.108-0.737-1.253-1.313-0.307-1.217 0.036-6.065 0.645-9.124 0.73-3.664 1.534-5.707 3.118-7.922 2.079-2.907 4.872-5.633 9.899-9.661 5.811-4.656 9.196-8.87 10.659-13.27 0.555-1.667 0.717-2.689 0.779-4.911 0.078-2.802-0.15-4.429-0.876-6.242-1.125-2.808-3.113-4.67-5.985-5.604-1.049-0.341-1.814-0.458-3.47-0.533-2.175-0.099-3.819 0.151-5.358 0.815-1.493 0.644-2.284 1.164-3.296 2.168-0.791 0.785-1.047 1.118-1.43 1.866-0.66 1.289-0.959 2.284-1.083 3.599-0.196 2.084-0.277 2.474-0.602 2.884-0.164 0.208-0.469 0.462-0.677 0.566-0.362 0.179-0.826 0.187-10.889 0.187-10.16 0-10.523-6e-3 -10.899-0.193-0.547-0.271-0.923-0.841-1.128-1.71-0.157-0.666-0.162-0.937-0.057-2.775 0.234-4.073 1.052-7.732 2.426-10.855 2.129-4.837 6.242-9.083 11.732-12.111 3.895-2.149 9.082-3.671 14.824-4.349 1.815-0.215 7.493-0.304 9.56-0.151 7.482 0.554 13.876 2.498 18.652 5.67 3.166 2.103 5.455 4.256 7.563 7.113 2.307 3.128 3.739 6.321 4.703 10.49 2.162 9.351 0.547 18.526-4.556 25.869-3.618 5.207-7.435 9.021-12.739 12.73-2.781 1.945-4.666 3.904-5.656 5.877-0.873 1.74-1.433 4.771-1.434 7.753-1e-3 1.507-0.143 2.075-0.649 2.596-0.292 0.3-0.558 0.465-0.885 0.547-0.615 0.155-21.051 0.149-21.638-7e-3z" stroke-width=".10058"/>
 </g>
</svg>