<?xml version="1.0" encoding="UTF-8"?>
<svg width="97.933" height="102.97" version="1.1" viewBox="0 0 97.933 102.97" xmlns="http://www.w3.org/2000/svg" xmlns:cc="http://creativecommons.org/ns#" xmlns:dc="http://purl.org/dc/elements/1.1/" xmlns:rdf="http://www.w3.org/1999/02/22-rdf-syntax-ns#" fill="white">
 <g transform="translate(-5.0326)">
  <path d="m51.464 102.91c-1.209-0.056-2.846-0.2-3.636-0.32-3.475-0.525-4.169-0.654-5.423-1.003-0.731-0.203-1.549-0.416-1.818-0.472-0.711-0.148-3.633-1.163-5.174-1.798-13.597-5.6-23.854-16.849-28.251-30.984-0.308-0.99-0.591-1.976-0.629-2.191-0.038-0.216-0.225-1.042-0.416-1.836-0.919-3.826-1.342-10.49-0.921-14.52 0.273-2.626 0.588-4.71 0.925-6.13 0.189-0.794 0.374-1.612 0.411-1.818 0.113-0.614 1.008-3.437 1.529-4.818 0.814-2.159 1.193-3.034 2.105-4.855 4.639-9.263 11.987-16.74 21.23-21.604 2.553-1.343 6.033-2.764 8.421-3.437 3.411-0.961 3.993-1.086 8.251-1.775 2.001-0.324 9.886-0.324 11.887 0 3.223 0.521 4.826 0.829 6.013 1.155 0.692 0.19 1.542 0.42 1.888 0.511 2.177 0.571 5.979 2.095 8.494 3.404 6.487 3.377 11.616 7.61 16.266 13.424 0.914 1.143 3.629 5.115 3.629 5.309 0 0.044 0.157 0.33 0.35 0.634 0.863 1.367 2.652 5.179 3.38 7.202 0.466 1.295 1.43 4.377 1.516 4.849 0.038 0.206 0.225 1.024 0.415 1.818 0.336 1.4 0.619 3.245 0.919 5.989 0.187 1.714 0.187 6.957 0 8.671-0.3 2.744-0.583 4.589-0.919 5.989-0.191 0.794-0.382 1.644-0.424 1.888-0.094 0.54-1.139 3.8-1.711 5.338-1.589 4.273-4.434 9.23-7.504 13.076-1.389 1.74-4.663 5.139-6.343 6.584-1.565 1.347-4.586 3.527-6.421 4.635-8.564 5.169-17.997 7.551-28.041 7.083zm3.845-31.802c1.785-0.287 2.227-0.534 3.672-2.058 1.269-1.338 3.983-4.381 4.252-4.768 0.116-0.166 0.718-0.931 1.339-1.7s1.342-1.713 1.603-2.098c0.512-0.756 1.324-1.795 1.716-2.197 0.135-0.138 0.245-0.311 0.245-0.385s0.272-0.468 0.604-0.876c0.746-0.915 3.568-5.105 4.146-6.154 0.443-0.804 1.834-2.938 2.132-3.271 0.147-0.164 0.452-0.754 0.679-1.312 0.66-1.623 0.311-1.749-2.147-0.777-0.863 0.341-2.166 0.743-2.897 0.895-0.731 0.151-1.643 0.384-2.028 0.518s-1.549 0.416-2.587 0.628c-2.355 0.481-3.826 0.787-5.174 1.075-2.241 0.479-6.363 0.786-9.16 0.683-3.404-0.126-3.992-0.245-7.778-1.57-0.74-0.259-1.424-0.471-1.521-0.471s-0.758-0.248-1.469-0.552-1.442-0.59-1.626-0.636c-0.183-0.046-0.868-0.469-1.522-0.941-0.654-0.471-1.534-1.092-1.958-1.38-0.945-0.643-3.414-3.139-4.138-4.183-1.367-1.973-2.848-4.189-3.492-5.225-0.625-1.006-0.755-1.138-1.119-1.138-0.392 0-0.411 0.027-0.4 0.591 7e-3 0.325 0.082 0.923 0.169 1.329 0.086 0.406 0.226 1.241 0.31 1.856s0.213 1.465 0.286 1.888 0.157 1.178 0.188 1.678c0.03 0.5 0.125 1.318 0.21 1.818 0.236 1.388 0.684 6.167 1.001 10.698 0.131 1.864 0.129 2.891-7e-3 4.755-0.095 1.308-0.233 2.492-0.307 2.632-0.248 0.473 0.081 1.034 2.287 3.898 0.668 0.868 1.337 1.359 1.616 1.186 0.064-0.04 1.076-0.21 2.248-0.379 2.457-0.354 2.525-0.345 4.994 0.633 1.509 0.598 1.578 0.611 3.566 0.683 2.643 0.095 3.043 0.15 3.48 0.473 0.201 0.149 0.556 0.368 0.788 0.489 0.664 0.343 2.345 2.033 2.256 2.267-0.06 0.156-0.33 0.197-1.174 0.179-0.916-0.02-1.179 0.028-1.601 0.289-0.563 0.348-0.722 0.629-0.59 1.045 0.086 0.272 0.179 0.277 3.744 0.204 2.452-0.05 4.151-0.155 5.162-0.317zm31.964-33.832c0.068-0.595-0.35-2.186-0.878-3.343-0.251-0.549-0.559-1.283-0.686-1.631s-0.372-0.826-0.545-1.064c-1.69-2.312-3.857-4.647-5.35-5.765-1.399-1.048-2.288-1.516-4.011-2.113-0.64-0.222-1.498-0.53-1.908-0.685s-1.453-0.36-2.318-0.455c-1.386-0.152-1.754-0.143-3.101 0.076-2.433 0.397-5.837 1.678-6.453 2.429-0.766 0.934-0.084 1.706 1.505 1.706 0.786 0 4.228-0.46 6.275-0.839 1.057-0.196 2.133-0.175 2.839 0.055 0.33 0.107 0.82 0.233 1.089 0.28 0.496 0.086 1.539 0.568 2.306 1.066 2.018 1.31 2.619 1.828 5.189 4.472 2.327 2.394 2.96 3.138 3.834 4.505 1.059 1.656 1.187 1.779 1.817 1.74 0.277-0.017 0.359-0.107 0.397-0.435zm-34.249-15.355c-0.016-0.817-0.337-1.98-0.727-2.634-0.21-0.353-0.382-0.684-0.382-0.736 0-0.124-0.935-1.471-1.312-1.889-0.406-0.45-2.371-1.956-3.276-2.51-1.1-0.674-2.21-1.059-4.351-1.512-1.296-0.274-4.742-0.142-6.514 0.25-0.927 0.205-2.133 0.635-2.497 0.889-0.161 0.113-0.422 0.205-0.579 0.205-0.158 0-0.614 0.215-1.014 0.479-0.4 0.263-0.848 0.517-0.995 0.564s-0.822 0.648-1.498 1.337c-1.193 1.215-1.682 1.956-1.537 2.332 0.104 0.272 0.924 0.221 1.547-0.097 0.302-0.154 0.612-0.28 0.69-0.28s0.584-0.217 1.124-0.482c1.134-0.556 3.392-1.348 5.108-1.792 0.98-0.253 1.582-0.308 3.426-0.311 2.22-3e-3 3.263 0.157 4.405 0.676 0.974 0.443 2.946 2.211 4.753 4.263 1.182 1.342 1.701 1.616 3.183 1.68 0.425 0.019 0.454-9e-3 0.446-0.435zm35.361-6.188c-0.306-0.713-0.923-1.807-1.471-2.602-0.456-0.663-3.174-3.341-3.391-3.341-0.071 0-0.409-0.189-0.751-0.42s-0.662-0.42-0.712-0.42c-0.049 0-0.702-0.28-1.449-0.623-0.865-0.397-1.777-0.696-2.511-0.823-1.183-0.205-1.852-0.512-1.852-0.849 0-0.603 0.93-1.051 2.195-1.058 0.925-5e-3 2.795 0.65 4.169 1.462 1.395 0.824 3.553 2.915 4.048 3.923 0.15 0.305 0.354 0.654 0.453 0.775s0.439 0.97 0.756 1.888c0.316 0.918 0.636 1.744 0.711 1.836s0.115 0.312 0.09 0.489c-0.039 0.277-0.079 0.244-0.285-0.237zm-31.925-11.735c-0.231-0.103-0.655-0.376-0.942-0.607-0.743-0.598-3.128-1.315-5.001-1.503-1.456-0.146-5.418 0.608-6.92 1.317-1.166 0.551-1.32 0.544-0.667-0.031 0.843-0.742 3.341-2.136 4.541-2.534 0.806-0.268 2.868-0.64 3.545-0.64 0.647 0 2.31 0.332 3.233 0.645 1.575 0.535 3.26 2.073 3.26 2.976 0 0.156-0.395 0.576-0.534 0.568-0.052-3e-3 -0.284-0.089-0.514-0.192z" stroke-width=".13985"/>
 </g>
</svg>
