<?xml version="1.0" encoding="UTF-8"?>
<svg width="222.78mm" height="62.021mm" version="1.1" viewBox="0 0 222.78 62.021" xmlns="http://www.w3.org/2000/svg" xmlns:cc="http://creativecommons.org/ns#" xmlns:dc="http://purl.org/dc/elements/1.1/" xmlns:rdf="http://www.w3.org/1999/02/22-rdf-syntax-ns#" fill="white">
 <g transform="translate(10.458 -118.1)">
  <g stroke-width=".26458" aria-label="D">
   <path d="m9.6844 118.8q4.0383 0 7.0425 1.182 3.0534 1.1327 5.2695 3.2011 2.5116 2.3146 3.9398 5.4665 1.4282 3.1519 1.4282 6.7962 0 3.2996-1.1327 6.156t-3.1519 5.0725q-2.3147 2.5116-5.6143 3.9891-3.2996 1.4282-7.7812 1.4282h-17.976q-2.1669 0-2.1669-2.1177v-29.106q0-2.0684 2.1669-2.0684zm-10.588 8.8154q-0.64022 0-0.64022 0.68947v14.331q0 0.68947 0.64022 0.68947h10.588q2.3639 0 3.9891-0.68947t2.7086-1.8714q0.98496-1.0342 1.5267-2.3639 0.54173-1.3789 0.54173-2.9056 0-1.6744-0.68947-3.1519-0.64022-1.4774-1.7729-2.5609-1.0835-0.98496-2.5609-1.5759-1.4774-0.59097-3.7428-0.59097z" stroke-width=".26458"/>
  </g>
  <g stroke-width=".26458" aria-label="aniel">
   <path d="m30.35 152.13m43.732-1.4774q0.19699 0.39399 0.29549 0.73872 0.14774 0.34474 0.24624 0.73872h-10.047q-0.0985-0.34473-0.19699-0.59097-0.0985-0.29549-0.19699-0.54173l-1.7729-4.0383h-19.699l-1.7237 3.9891q-0.0985 0.29549-0.19699 0.59098-0.0985 0.29548-0.14774 0.59097h-10.293q0.0985-0.39398 0.19699-0.73872 0.14774-0.34473 0.34474-0.73872l11.918-26.397q1.4282-3.1026 3.7428-4.6293t5.9098-1.5267q3.4966 0 5.8113 1.5267 2.3639 1.5267 3.7921 4.6293zm-14.922-11.032-5.1218-11.918q-0.24624-0.54173-0.64022-0.78797t-0.88646-0.24624q-0.44323 0-0.83722 0.24624-0.39398 0.197-0.64022 0.78797l-5.0725 11.918z"/>
   <path d="m78.022 152.13m41.418-6.4515q0 1.8714-0.54173 3.2504-0.49248 1.3297-1.379 2.2162-0.83721 0.83722-1.9699 1.2312-1.1327 0.44323-2.3639 0.44323-2.1177 0-3.7428-0.64022-1.5759-0.59098-2.7579-1.9699l-18.271-21.127q-0.39398-0.44324-0.78797-0.44324-0.34474 0-0.59098 0.24624t-0.24624 0.68948v22.556h-8.7661v-26.249q0-2.1177 0.54173-3.5951 0.59098-1.4774 1.6252-2.4132t2.4624-1.3297q1.4282-0.44323 3.1026-0.44323 2.3639 0 3.9891 0.73872 1.6252 0.73872 3.2011 2.5609l16.252 19.453q0.19699 0.24624 0.39398 0.34473 0.197 0.0493 0.44324 0.0493 0.68947 0 0.68947-0.88646v-21.521h8.7169z"/>
   <path d="m124.41 152.13m8.9631-33.292v33.292h-8.9631v-33.292z"/>
   <path d="m138.3 152.13m35.015-33.292v8.8154h-25.313q-0.78797 0-0.78797 0.83722v3.7921h25.954v6.4022h-25.954v4.0383q0 0.88647 0.78797 0.88647h25.313v8.5199h-30.337q-4.6786 0-4.6786-4.6293v-24.181q0-4.4816 4.7278-4.4816z"/>
   <path d="m177.31 152.13m10.835 0q-3.0534 0-5.171-0.64022-2.0684-0.68947-3.3489-2.0192-1.2312-1.3789-1.7729-3.3981-0.54173-2.0684-0.54173-4.7771v-22.457h8.9631v21.62q0 1.8222 0.59097 2.5116 0.64023 0.64023 2.3639 0.64023h23.097v8.5199z"/>
  </g>
  <g stroke-width=".77395" aria-label="industries">
   <path d="m-10.458 179.69m5.6049-20.818v20.818h-5.6049v-20.818z"/>
   <path d="m-1.8039 179.69m25.899-4.0343q0 1.1702-0.33876 2.0325-0.30796 0.83149-0.86229 1.3858-0.52353 0.52353-1.2318 0.7699-0.70831 0.27716-1.4782 0.27716-1.3242 0-2.3405-0.40034-0.98547-0.36956-1.7246-1.2318l-11.425-13.211q-0.24637-0.27716-0.49274-0.27716-0.21557 0-0.36955 0.15398t-0.15398 0.43114v14.105h-5.4817v-16.414q0-1.3242 0.33876-2.2481 0.36955-0.92388 1.0163-1.509 0.64672-0.58512 1.5398-0.83149 0.89308-0.27717 1.9401-0.27717 1.4782 0 2.4945 0.46194 1.0163 0.46194 2.0017 1.6014l10.163 12.164q0.12318 0.15398 0.24637 0.21557 0.12318 0.0308 0.27716 0.0308 0.43114 0 0.43114-0.55432v-13.458h5.4509z"/>
   <path d="m27.175 179.69m12.596-20.818q2.5253 0 4.4038 0.73911 1.9094 0.70831 3.2952 2.0017 1.5706 1.4474 2.4637 3.4184 0.89308 1.971 0.89308 4.2498 0 2.0633-0.70831 3.8495t-1.9709 3.172q-1.4474 1.5706-3.5107 2.4945-2.0633 0.89308-4.8658 0.89308h-11.241q-1.355 0-1.355-1.3242v-18.2q0-1.2934 1.355-1.2934zm-6.6211 5.5125q-0.40035 0-0.40035 0.43114v8.9616q0 0.43114 0.40035 0.43114h6.6211q1.4782 0 2.4945-0.43114 1.0163-0.43115 1.6938-1.1702 0.61592-0.64672 0.95468-1.4782 0.33876-0.86229 0.33876-1.817 0-1.0471-0.43114-1.971-0.40035-0.92388-1.1087-1.6014-0.67751-0.61592-1.6014-0.98547t-2.3405-0.36955z"/>
   <path d="m53.382 179.69m7.2987 0q-1.9709 0-3.3568-0.36955-1.3858-0.40035-2.2789-1.201-0.86229-0.83149-1.2626-2.0633-0.40035-1.2626-0.40035-3.018v-14.166h5.6049v13.55q0 1.9402 2.0017 1.9402h8.6537q2.0633 0 2.0633-1.9402v-13.55h5.6049v14.166q0 3.48-1.6938 5.0813-1.6938 1.5706-5.6049 1.5706z"/>
   <path d="m79.528 179.69m22.512-15.306h-14.967q-0.52353 0-0.83149 0.12318-0.27716 0.0924-0.46194 0.27717-0.43114 0.43114-0.43114 1.0779 0 0.67751 0.52353 1.1086 0.18478 0.15398 0.43114 0.24637 0.27716 0.0616 0.7699 0.0616h9.1464q1.7554 0 2.9564 0.52353 1.2318 0.49274 2.0633 1.355 0.8315 0.86229 1.2934 1.9709 0.49273 1.1087 0.49273 2.3405 0 1.1394-0.43114 2.1865-0.40035 1.0471-1.1087 1.8786-0.86229 0.98547-2.1557 1.5706-1.2626 0.58512-3.1104 0.58512h-16.137v-5.3277h15.152q0.64672 0 0.98547-0.12318 0.36955-0.15398 0.58512-0.40035 0.33876-0.40035 0.33876-0.95468 0-0.67751-0.43114-1.1086-0.21557-0.24637-0.55433-0.33876-0.30796-0.12318-0.92388-0.12318h-8.4689q-2.0941 0-3.3876-0.49274-1.2626-0.52353-2.0941-1.3858t-1.2934-1.9402q-0.46194-1.1086-0.46194-2.4021 0-1.2626 0.46194-2.3713 0.49274-1.1086 1.3242-1.9709t2.0941-1.355q1.2626-0.52354 3.3568-0.52354h15.275z"/>
   <path d="m104.35 179.69m23.867-20.818v5.5125h-9.1156v15.306h-5.6049v-15.306h-9.1464v-5.5125z"/>
   <path d="m130.4 179.69m5.5741 0h-5.5741v-19.525q0-1.2934 1.3858-1.2934h14.782q1.9402 0 3.2028 0.55433 1.2626 0.52353 2.1249 1.4166 0.7699 0.80069 1.201 1.8786 0.46194 1.0471 0.46194 2.2173 0 1.2626-0.43114 2.4021-0.43114 1.1087-1.5398 1.9094 1.0471 0.61592 1.509 1.5706 0.49274 0.95468 0.49274 2.7408v4.1575q0 0.67751 0 1.1086 0.0308 0.43115 0.0924 0.86229h-5.6357q-0.0924-0.67751-0.0924-1.3858v-4.1575q0-0.98547-0.52353-1.4166-0.52353-0.43114-1.7554-0.43114h-9.7007zm9.8547-12.134q0.58512 0 0.95467-0.18478 0.36956-0.18478 0.61592-0.49274 0.40035-0.49273 0.40035-1.0779 0-0.7083-0.46194-1.1702-0.49273-0.55433-1.509-0.55433h-9.3928q-0.46194 0-0.46194 0.46194v3.018z"/>
   <path d="m156.36 179.69m5.6049-20.818v20.818h-5.6049v-20.818z"/>
   <path d="m165.05 179.69m21.896-20.818v5.5125h-15.829q-0.49273 0-0.49273 0.52353v2.3713h16.229v4.0035h-16.229v2.5253q0 0.55433 0.49273 0.55433h15.829v5.3277h-18.97q-2.9256 0-2.9256-2.8948v-15.121q0-2.8024 2.9564-2.8024z"/>
   <path d="m188.82 179.69m22.512-15.306h-14.967q-0.52353 0-0.83149 0.12318-0.27716 0.0924-0.46194 0.27717-0.43114 0.43114-0.43114 1.0779 0 0.67751 0.52353 1.1086 0.18478 0.15398 0.43114 0.24637 0.27717 0.0616 0.7699 0.0616h9.1464q1.7554 0 2.9564 0.52353 1.2318 0.49274 2.0633 1.355 0.8315 0.86229 1.2934 1.9709 0.49273 1.1087 0.49273 2.3405 0 1.1394-0.43114 2.1865-0.40035 1.0471-1.1087 1.8786-0.86229 0.98547-2.1557 1.5706-1.2626 0.58512-3.1104 0.58512h-16.137v-5.3277h15.152q0.64672 0 0.98548-0.12318 0.36955-0.15398 0.58512-0.40035 0.33876-0.40035 0.33876-0.95468 0-0.67751-0.43115-1.1086-0.21557-0.24637-0.55433-0.33876-0.30796-0.12318-0.92388-0.12318h-8.4689q-2.0941 0-3.3876-0.49274-1.2626-0.52353-2.0941-1.3858-0.8315-0.86229-1.2934-1.9402-0.46194-1.1086-0.46194-2.4021 0-1.2626 0.46194-2.3713 0.49274-1.1086 1.3242-1.9709t2.0941-1.355q1.2626-0.52354 3.3568-0.52354h15.275z"/>
  </g>
 </g>
</svg>
