<?xml version="1.0" encoding="UTF-8"?>
<svg id="vector" width="470.67" height="487.97" version="1.1" viewBox="0 0 470.67 487.97" xmlns="http://www.w3.org/2000/svg" xmlns:cc="http://creativecommons.org/ns#" xmlns:dc="http://purl.org/dc/elements/1.1/" xmlns:rdf="http://www.w3.org/1999/02/22-rdf-syntax-ns#" fill="white">
 <g id="group" transform="translate(0 -42.682)">
  <path id="path" d="m247.33 528.18c-85.671-15.207-152.42-68.076-187.39-148.42l-5.658-13h-43.171l-2.939-12.791c-2.625-11.429-8.125-43.917-8.162-48.209-0.011-1.262 5.001-1.667 20.653-1.667h20.666l0.019-15c0.01-8.25 0.38-16.35 0.822-18l0.804-3h-21.489c-11.819 0-21.489-0.495-21.489-1.101 0-4.428 4.674-32.889 7.371-44.89 1.813-8.061 3.296-15.111 3.296-15.666s10.119-1.009 22.488-1.009h22.488l3.02-8.334c16.266-44.887 57.56-93.44 102-119.94 38.868-23.172 79.541-34.359 125.36-34.48 58.389-0.153 110.67 18.166 155.3 54.421 12.403 10.074 29.819 27.599 29.159 29.341-0.271 0.713-16.389 15.099-35.819 31.969l-35.326 30.672-9.829-9.178c-19.604-18.309-39.732-29.436-66.472-36.748-11.688-3.196-15.337-3.568-35.046-3.569-13.226-1e-3 -25.191 0.697-30 1.75-34.374 7.526-66.219 26.67-86.242 51.846-4.267 5.364-7.758 10.314-7.758 11 0 0.751 20.652 1.246 52 1.246h52v62.666h-128.99l-0.932 10.687c-0.513 5.878-0.521 13.978-0.019 18l0.914 7.313h129.03v62.667h-106.66l4.818 6.706c10.309 14.349 32.791 34.201 48.862 43.144 34.431 19.161 80.486 23.333 118.26 10.712 21.7-7.252 39.392-17.878 56.662-34.033 4.622-4.324 8.759-7.863 9.193-7.863 1.003 0 55.223 47.432 64.539 56.459l6.999 6.783-6.333 6.484c-10.541 10.791-31.05 28.101-41.921 35.382-28.908 19.36-65.412 33.116-101.5 38.246-19.153 2.723-56.568 2.415-73.583-0.605z" stroke-width="1.3333"/>
 </g>
</svg>
