<?xml version="1.0" encoding="UTF-8"?>
<svg width="20" height="20" version="1.1" viewBox="0 0 20 20" xmlns="http://www.w3.org/2000/svg" xmlns:cc="http://creativecommons.org/ns#" xmlns:dc="http://purl.org/dc/elements/1.1/" xmlns:rdf="http://www.w3.org/1999/02/22-rdf-syntax-ns#" fill="white">
 <g transform="translate(-2,-2)">
  <path d="m11.99 2c-5.52 0-9.99 4.48-9.99 10s4.47 10 9.99 10c5.53 0 10.01-4.48 10.01-10s-4.48-10-10.01-10zm0.01 18c-4.42 0-8-3.58-8-8s3.58-8 8-8 8 3.58 8 8-3.58 8-8 8zm3.5-9c0.83 0 1.5-0.67 1.5-1.5s-0.67-1.5-1.5-1.5-1.5 0.67-1.5 1.5 0.67 1.5 1.5 1.5zm-7 0c0.83 0 1.5-0.67 1.5-1.5s-0.67-1.5-1.5-1.5-1.5 0.67-1.5 1.5 0.67 1.5 1.5 1.5zm3.5 6.5c2.33 0 4.31-1.46 5.11-3.5h-10.22c0.8 2.04 2.78 3.5 5.11 3.5z"/>
 </g>
</svg>
